# xmcd CD database file
#
# Track frame offsets:
#	150
#	16147
#	32950
#	48027
#	69540
#	84282
#	99115
#	115407
#	129407
#	149632
#	163292
#	179172
#
# Disc length: 2581 seconds
#
# Revision: 0
# Processed by: cddbd v1.4PL0 Copyright (c) Steve Scherf et al.
# Submitted via: CDex 1.50beta9
#
DISCID=a20a130c
DTITLE=Michael McCarthy - Wisdom Is Delight
DYEAR=2001
DGENRE=Blues
TTITLE0=You're Not Welcome
TTITLE1=Falling Idols
TTITLE2=I Wish To Find
TTITLE3=Wisdom Is Delight
TTITLE4=Come Before The Throne
TTITLE5=Nothing Without Him
TTITLE6=Two Diamonds
TTITLE7=Between Two Coasts
TTITLE8=Rain
TTITLE9=Tag On Your Toe
TTITLE10=Interpretation
TTITLE11=Blue Mountain
EXTD=YEAR: 2001
EXTT0=
EXTT1=
EXTT2=
EXTT3=
EXTT4=
EXTT5=
EXTT6=
EXTT7=
EXTT8=
EXTT9=
EXTT10=
EXTT11=
PLAYORDER=
